<svg id="Layer_6" data-name="Layer 6" xmlns="http://www.w3.org/2000/svg" viewBox="0 0 800 704.05"><defs><style>.cls-1{fill:#e02934;}.cls-2{fill:#ef5050;}</style></defs><path class="cls-1" d="M105,244c-1.15-.58-47.25-11-48.31,43a1.77,1.77,0,0,1-3.19,1c-2.75-3.74-5.72-10.67-1.68-20.86,5.65-14.25-10.76,3.92-21.72-2.2a1.88,1.88,0,0,1,.62-3.46c4.76-.83,13.55-5,28-20.25l.15-.14c14.24-12.15,28.77-14.8,47,3.33"/><path class="cls-2" d="M50.79,249.16s20.19-21.35,38.89-9.6,47.89,28.17,68.2,11.79c0-.66-16.15-29.66-51.6-29.41S52.34,244.16,50.79,249.16Z"/><path class="cls-1" d="M130.48,257.66c-.26-.05-11.11-21,10.17-25,.9.65,14.43,12,17.23,18.73A37,37,0,0,1,130.48,257.66Z"/><path class="cls-1" d="M511.65,234.17c-.92-.88-42.16-24-58.54,27.48a1.77,1.77,0,0,1-3.35.07c-1.57-4.36-2.44-11.86,4.33-20.47,9.47-12.06-11.43.7-20.2-8.29a1.88,1.88,0,0,1,1.58-3.14c4.8.55,14.41-.91,32.63-11.44l.19-.1c17.11-7.59,31.79-6,44.07,16.56"/><path class="cls-2" d="M458.24,223.73s25.42-14.72,40,1.86,37.9,40.64,62,30.7c.18-.63-7-33-41.1-42.86S461.14,219.38,458.24,223.73Z"/><path class="cls-1" d="M532.21,254.55c-.24-.12-4.68-23.26,16.88-21.11.68.88,10.41,15.61,11.18,22.85A37,37,0,0,1,532.21,254.55Z"/><path class="cls-1" d="M291.58,439.48c.8,1,38.68,29.28,61.62-19.62a1.77,1.77,0,0,1,3.33.36c1,4.53.88,12.08-6.95,19.74-11,10.72,11.42.79,18.94,10.85a1.88,1.88,0,0,1-2,2.91c-4.69-1.18-14.41-1-33.85,7.09l-.19.07c-18,5.31-32.3,1.81-41.55-22.15"/><path class="cls-2" d="M343.18,456.79s-27.12,11.28-39.42-7.05-32.29-45.22-57.51-38.52c-.25.61,2.69,33.67,35.17,47.86S339.74,460.73,343.18,456.79Z"/><path class="cls-1" d="M273.85,416.61c.22.14,1.61,23.66-19.48,18.73-.56-1-8.3-16.84-8.12-24.12A36.94,36.94,0,0,1,273.85,416.61Z"/><path class="cls-1" d="M657.87,555.6c-.87.94-40.46,26.76-60.26-23.48a1.77,1.77,0,0,0-3.35.15c-1.27,4.45-1.64,12,5.69,20.13,10.27,11.39-11.45.07-19.59,9.63a1.88,1.88,0,0,0,1.78,3c4.76-.88,14.44-.07,33.33,9.22l.2.08c17.58,6.43,32.12,3.85,42.86-19.48"/><path class="cls-2" d="M605.27,569.6s26.35,13,39.79-4.54,35.08-43.09,59.83-34.8c.22.63-4.81,33.43-38.13,45.53S608.46,573.75,605.27,569.6Z"/><path class="cls-1" d="M677,533.89c-.23.13-3.11,23.52,18.26,19.92.61-.92,9.34-16.27,9.62-23.55A36.93,36.93,0,0,0,677,533.89Z"/><path class="cls-1" d="M608.18,117.69c1.27-.15,48.11,6.21,30.22,57.17a1.77,1.77,0,0,0,2.63,2.08c3.88-2.54,9.09-8,8.87-19-.31-15.33,8.7,7.44,21.11,5.53a1.87,1.87,0,0,0,.64-3.45c-4.17-2.45-11-9.4-19.18-28.78l-.09-.19c-9.1-16.36-21.79-23.92-45.17-13.29"/><path class="cls-2" d="M657.13,141.49s-11.45-27.05-33.08-22.59-54.71,9.65-68-12.81c.24-.61,25.5-22.13,58.62-9.5S657.43,136.27,657.13,141.49Z"/><path class="cls-1" d="M579.5,121.59c.26,0,17.74-15.76-.78-27-1.07.29-17.71,6.19-22.68,11.51A37,37,0,0,0,579.5,121.59Z"/><path class="cls-1" d="M199,572.66c-1.28,0-46.53-13.7-20.85-61.21a1.78,1.78,0,0,0-2.28-2.47c-4.22,1.9-10.23,6.47-11.73,17.33-2.1,15.18-7.43-8.72-20-8.78a1.87,1.87,0,0,0-1.16,3.31c3.73,3.07,9.35,11,14.41,31.43a1.18,1.18,0,0,0,.07.2c6.4,17.59,17.75,27,42.51,20.23"/><path class="cls-2" d="M154.4,541.45s7,28.52,29.11,27.51,55.55-.92,65.15,23.35c-.33.56-28.66,17.85-59.38.16S153.28,546.56,154.4,541.45Z"/><path class="cls-1" d="M227.93,573.31c-.25-.09-20,12.77-3.48,26.8,1.1-.12,18.47-3.33,24.21-7.8A37,37,0,0,0,227.93,573.31Z"/></svg>