<svg xmlns="http://www.w3.org/2000/svg" viewBox="0 0 1080 1920"><defs><style>.cls-1{fill:#8e5b24;}.cls-2{fill:#502c13;}.cls-3{fill:#92cedf;}.cls-4{fill:#5f9aa8;}.cls-5{fill:#c4e8f2;}.cls-6{fill:#a86729;}.cls-7{fill:#f4dea8;}.cls-8{fill:#ad8e5f;}.cls-9{fill:#c6a773;}.cls-10{fill:#f6e7c8;}.cls-11{fill:#7f5e36;}.cls-12,.cls-18{fill:#231f20;}.cls-13{fill:#f4f5f6;}.cls-14{fill:#77151c;}.cls-15{fill:#fff;}.cls-16,.cls-19,.cls-23{fill:none;}.cls-16,.cls-18,.cls-19,.cls-27,.cls-28{stroke:#231f20;}.cls-16,.cls-18,.cls-19,.cls-23,.cls-27,.cls-28{stroke-miterlimit:10;}.cls-16,.cls-18,.cls-23,.cls-27,.cls-28{stroke-width:2px;}.cls-17{fill:#a63938;}.cls-20{fill:#b32f30;}.cls-21{fill:#db5858;}.cls-22{fill:#f37b7c;}.cls-23{stroke:#a83433;}.cls-24{fill:#efafb2;}.cls-25{fill:#e95f68;}.cls-26{fill:#dd8387;}.cls-27{fill:#b21f58;}.cls-28{fill:#4f4f4f;}.cls-29{fill:#c0bfbf;}.cls-30{fill:#8e8e8e;}.cls-31{fill:#eae8e8;}</style></defs><g id="Layer_6" data-name="Layer 6"><path class="cls-1" d="M251.3,1917s-21.74-21.56-6.67-36.13l5.09-5.58s-11.65-15.3-4.41-19.12S256,1853.6,256,1853.6l39.74-259.83,514-28.08,37.3,298.61s20.36,24.23,16.19,33.82S851,1918.58,851,1918.58H570.44S558,1788.63,548.91,1789.16s-19.2,129.42-19.2,129.42H252.62Z"/><g id="Layer_7" data-name="Layer 7"><path class="cls-2" d="M280.46,1694.88l11.67-76.27s-.56-14.47,5.55-10.63c8.55,1.3,41,2.56,49.51,2.22.17-.09,1.42.81,1.94,8s-.67,26.59-.67,26.59-5.42,38.66-24.8,48.65-37.61,10.5-44.49,6.25c.25.22,1.29-4.77,1.29-4.77"/></g><path class="cls-2" d="M759.44,1579.31s-5.52,68.89,35.37,93.85c0,0,19.86,11.7,30,11.18L810.16,1561.6"/><path class="cls-2" d="M318.25,1641.84s115.91-1.09,187.4-8.24,129.19,0,129.19,0,103.57,25.82,142.17-3.17-6-62.62-6-62.62l-452.72,18.3"/><path class="cls-3" d="M174.25,1140.84s12.88-81.07,19-106.76S218.06,939.54,229,919.66s19.13-35.11,38.65-48.62,61.64-39.84,110.64-51.11,65.92-14.07,65.92-14.07,4.17-2.3,8.08,3.32l7.15,8s18.43,19.39,28.24,22.82,20.89,13.74,43.22,12.33,34.61-8.3,38.63-11,21.94-13.76,25.63-19.77c5.9-6.08,17.52-19.84,17.52-19.84l30,6,43.95,12.18,49.19,17.91,35.7,17.07s65.43,31,79.29,81.32,30,117.29,30.24,135.09-84.15,227.16-84.15,227.16l-.45,48.08-3.41,58.87a460.94,460.94,0,0,1,17.09,65.31c6.15,34.57,21.75,105.06-6.32,109.89-19.21,7.57-26.84,11.34-26.84,11.34s-20.6,15.58-99.25,8.28c-52.79-5.25-104.87-.87-104.87-.87l-206.56,10.42s-74.4,5.38-83.54-10.67c-6.41-10.94.24-18.15.24-18.15l13.42-24.13s3.16-32,3.11-30.93,1.93-134.67-9.09-168.29"/><path class="cls-4" d="M290.47,1308.21s11.32,169.39,9.59,186.24c0,0-1.68,59.2-3.61,62.37S307,1537.41,312,1517s5.91-120.54,40.42-100.62,41.64,39.06,41.64,39.06,84,155,169.17,44.45c-10.73,3.32-100.48,91.82-174.13-166.65"/><path class="cls-4" d="M407.61,1417.7c.08,9.4,145.28,138,387-38.36l8.64-111.61L374,1344.3Z"/><path class="cls-5" d="M457.82,814.79S269.74,854.37,244.21,924.33s-53.62,230.4-53.62,230.4l-19.92-4.19,24.24-123.72s27-107.26,46.26-128.78,23.68-26.72,36.59-34.43c0,0,41.17-27.21,78.11-36.86s93.77-21.64,93.77-21.64Z"/><path class="cls-4" d="M780.21,1497.94c-12.6,90.22-199,96.85-230.27,101.41,0,0,93.84-4.2,115.25-.38s67.7,3.14,79.95,2.12"/><path class="cls-4" d="M745.14,1601.09s25.58-4,39.09-12.72,24.7-9.17,24.7-9.17,9.76-2,10.86-26c0,0,1.51-66.06-26.71-147.75,0,0-1.3,89-27,115.14s-96.14,73.17-214.49,78.81c0,0,106-5.83,125.13.55C699.19,1603.22,739.78,1603.05,745.14,1601.09Z"/><path class="cls-4" d="M304,1542.48c-1.84,20.44,2,72,187.1,60,3.06,1.24-150.38,9.49-160.26,7.28-9.61.37-39.3.34-46.2-8.42s-5.81-7.46-4.49-13.73,18.62-35.4,18.62-35.4"/><path class="cls-4" d="M771,1445s-4.74,59.93-34.38,67.81-60.11,5.6-60.11,5.6C714.11,1503.11,745.32,1478.22,771,1445Z"/><path class="cls-2" d="M843,1833.38s-29.9,85.2-151.24,85.2l159.89-.75s12.75-12.39,12.09-25.33c0-7.83-18.19-30.47-18.19-30.47L843,1833.38"/><path class="cls-2" d="M819.79,1840.41s-47.58,62.81-177.8,58.21C646.59,1898.62,768.82,1868.5,819.79,1840.41Z"/><path class="cls-4" d="M468,860.61s68,37,135.28-13.23c.33-.25-33.5,73.6-135.28,13.23"/><path class="cls-4" d="M351.82,934.86s63.71,111.73,123.77,92.27c-40.5,45.1-91,59-91,59S329.84,910.19,351.82,934.86Z"/><path class="cls-2" d="M547.27,1786.54l-21.45-86.81c-6.61-20-15.74-21.37-23.74-12.51Z"/><path class="cls-2" d="M551.11,1784.24s.09-47.24,0-48.76c-.84-13.63,19.18-25.15,19.86-15.32Z"/><path class="cls-5" d="M396.79,1459.65s59.86,112.44,130.88,73.23c-.28.12-80.65,65.13-130.88-73.23"/><path class="cls-5" d="M601.37,814.79s182.36,43.6,206.85,87.29,46.21,156.32,46.21,156.32l26.66,12.89s-21.74-140.75-42.46-160.94c-18.84-21.63-31.38-38.4-67.07-55.47s-92.74-43-156.26-53.15c.18,0-2.67-.62-2.67-.62Z"/></g><g id="Layer_2" data-name="Layer 2"><g id="Layer_4" data-name="Layer 4"><path class="cls-2" d="M468,693.86s-27.95,13-56.92,4.62-34-9.27-46.38-16.2-42.26-27.62-53.33-39.37-19.73-20.5-20.56-29.88,8.46-22.13,8.46-22.13,36.12-36.61,38.6-43.93,19.85-26.54,19.85-26.54L693.4,531.8l33.53,42.84s17.1,12.45,6.76,33.24-35.79,53.38-50,63-41,27.62-82,26.43"/><path class="cls-1" d="M486.18,314.57s96.07-15.08,111.39-25.26c5.69,2.63,13.09,7.58,21.62,24.34s45.63,92.4,36.88,131.26c2.75,4.38,33.33,59.46,41.54,80.12s30.32,49.61,30.32,49.61-41.52-22.52-50.45-42.84S546,410.88,546,410.88L448.64,428,359.23,537l-8.8-8.93s-30.63,48.44-54.51,66.6c-.14.54,11.12-51.64,24.51-75.34,10.95-23.89,32.72-61.93,32.72-61.93l15.15-65.54c.05-.19,16.77-62,24.59-75.31s13.8-22.69,27.23-19.83c13.75,2.93,46.09,15.35,66.06,17.84"/><path class="cls-2" d="M382.62,343.26S347.83,449,400.44,407.36a244.25,244.25,0,0,0-47.73,49.24s23.65-109,29.91-113.34"/><path class="cls-4" d="M764.36,947.08s-1.29,97.21,18.89,124.45c-3.79-.85-50.09-10.7-50.09-10.7s16.27-96.71,31.2-113.75"/><path class="cls-4" d="M296.44,975s21.66,21.91,20.48,59.66-5.14,87.5-5.14,87.5l-42.21,19.75s27.87-71.35,26.87-166.91"/><path class="cls-2" d="M479.69,314.74s34.45,14.4,47.57-7c.49-.09-47.57,7-47.57,7"/><path class="cls-2" d="M636.7,355.29s14.45,64.17-26.82,42.9c-.39-.26,34.88,26.81,45.07,45,1.12,1.74,10.49-10.79-18.25-87.88"/><path class="cls-6" d="M376.58,358.43s15.67-49.78,38.95-49.44c19.93.29,67.49,24.7,97.7,18.83,66.85-13,93.36,18.43,89.18,65.46.55.35,29.15,20.79,34.37,0S638,359.82,638,359.82s-18.42-50.91-30.15-62.54-15.66-6-15.66-6l-64.36,16.51s-8.41,9.54-15.95,10.78-13.29,2.73-42.26-7.1-41.79-15.91-56.19-14.59S389.85,317.84,376.58,358.43Z"/></g><path class="cls-7" d="M386.43,572s-25.38-19-27.12,8.16,25.15,65.26,51.79,66.14c0,0,14.95,41.8,39.83,58.51s65.37,40.13,82.92,34S569.43,727.08,581.8,715s31.66-22.06,42-58.44c5.42-17.61,5.42-18.34,5.42-18.34s15.87-2.06,25.3-15,17.21-24.68,19.27-35.79,5.72-25.69-8.62-29.56-20.66,14-20.66,14,7.84-28.61,5.29-39.78-5.74-28.9-28-41.43c0,0-31.09,3.58-40.23-47.54,0,0-3.77,29.12-43.91,26.1-13.07-5.22-21.36-19-22.32-36.87,0,.17-7.85,15.35-19.55,18.48s-24.32-5.09-29.17-19.28c.05.08-.73,19.5-3.3,26.1S453.6,482.77,432,483.73s-20.87.24-20.87.24S378.88,504,379.89,538.09c5.32,21.87,8.93,35.68,8.93,35.68L386.43,572"/><path class="cls-7" d="M587.68,710.52s-7.13,87.83,21.47,93.63c.22.05-5.72,13.14-25.93,27.94s-37.06,20-51.35,20.29-37.4-5.12-52.83-17.92a325.63,325.63,0,0,1-28.85-27.53s16.82-6.86,8.65-97.24"/><path class="cls-8" d="M457.82,711.48s3.37,43.31,3.22,54.21c0,0,21.19,27,38.55,26.34s68.87-21.28,88.28-54.64c0,0-1.06-22.12-.19-26.87-.3,1-33.74,30.28-59.77,30.28C501.14,740.8,457.82,711.48,457.82,711.48Z"/><path class="cls-9" d="M533,719.63s-8.86-5.38-15.68,2.48c0,0,11,4.61,15.68-2.48"/><path class="cls-9" d="M485.67,571.93a22.25,22.25,0,0,0-8.42-20.18,23.3,23.3,0,0,0-11.43-.35s13.64,7.46,19.85,20.53"/><path class="cls-9" d="M550,571.93a22.25,22.25,0,0,1,8.42-20.18,23.25,23.25,0,0,1,11.42-.35S556.2,558.86,550,571.93"/><path class="cls-9" d="M527.63,641.92s-6.13-3.79-9.71,1.34-10.43,1.19-10.43,1.19a9.1,9.1,0,0,0,12,1.44c.14-.24,6.15,1.28,8.09-4"/><path class="cls-8" d="M388.74,575.54s-8.93-13.54-21.33-8.71-6.8,26-6.8,26,13.54,49,43,53.72a18.57,18.57,0,0,0,7.45.29l-22.36-71.28"/><path class="cls-8" d="M646.82,567.6s8.93-13.54,21.33-8.72,6.8,26,6.8,26-13.53,49-43,53.73c-3.45,1-2.45.28-2.45.28l17.35-71.27"/><path class="cls-8" d="M390.28,494.88s17.19,220.73,112.49,245.43c.33.7-48.27-32.62-48.27-32.62s-25.94-15-36.93-45.88-47.49-135-47.49-135"/><path class="cls-8" d="M635.36,491.31s.59,169.87-53.83,228.3c-.81,1.74,30.06-34.79,30.06-34.79a249.41,249.41,0,0,0,25-74c6.7-41.43,19.72-77.68,17.17-93.77"/><path class="cls-8" d="M392.62,554.37s22.69-67.05,121.48-67.05S641.23,547,641.23,547L641,472.2l-86-45H453l-73.11,73.53"/><ellipse class="cls-10" cx="511.02" cy="630.33" rx="4.63" ry="6.77"/><path class="cls-2" d="M258.55,1833.38s51,85.2,183.53,85.2l-188.43,1.24s-23.23-24.51-12.76-35.49,8.83-9.06,8.83-9.06-12.25-16.41-4.41-19.12,10.08-2.54,10.08-2.54l3.16-20.23"/><path class="cls-11" d="M378.6,604.8c-2.7-.07,5.39-13,6.25-14.27,1.07-1.54-6-5.47-8.08-3.14s-2.72,16,2.83,18.41"/><path class="cls-11" d="M657.41,597.49c2.69-.07-5.4-13-6.26-14.27-1.07-1.54,6-5.47,8.09-3.14s2.71,16-2.83,18.41"/><path class="cls-10" d="M579.23,556.27s13.62-6.7,26.49,1.9C605.53,558.32,591.72,541.66,579.23,556.27Z"/><path class="cls-10" d="M454.59,555.6s-13.9-6.1-26.37,3C428.41,558.8,441.47,541.55,454.59,555.6Z"/></g><g id="Layer_3" data-name="Layer 3"><path class="cls-12" d="M364.89,567.9s-1.11,3.47-5.66-2.56-12.29-11.22-9.11-31.22c0,0,.69-6.09,5.31-14.52S373,486.79,373,486.79s18.18-30,28.94-40.35,26.4-24.34,36.8-27.86,21.27-11.35,38.14-13.14,31-7.15,47.18-4.9,25.25.87,36,5.65,31.48,9.57,47.51,25.25,23.8,22.32,39.74,52.33,28,45.12,28,45.12,4,3.54,3.45,12-3.51,20.87-7.59,20.61c0,0-19.53-9.2-26.66,11.1,0,0,8.1-32.08,4.7-43.44s-4.67-22-25.86-37.36c0,0-30.4,5.87-41.63-46.73.52.77-7.19,24.15-36.78,25.74S515.11,429,515.11,429s-4.59,24.26-27.32,22.65c-10.48-1.46-18.38-12.17-21.83-20.22,0,0,2.64,28.92-11.07,42s-34.46,12.93-44.57,11.87c0,.21-35.65,23.07-29.39,56.77s7.89,32.53,7.89,32.53S377.06,560.24,364.89,567.9Z"/></g><g id="Layer_5" data-name="Layer 5"><path class="cls-13" d="M409.65,573.61a152.8,152.8,0,0,1,24.64-13.79c29.48-6.1,40.59,7.39,47.82,13.38s4.07,9.47,4.07,9.47-7.59,4.42-35.25,6.11-40.83-11.69-40.83-11.69C409,576.19,408.7,575.07,409.65,573.61Z"/><path class="cls-13" d="M626.06,573.61a152.8,152.8,0,0,0-24.64-13.79c-29.48-6.1-40.59,7.39-47.82,13.38s-4.08,9.47-4.08,9.47,7.6,4.42,35.26,6.11,40.83-11.69,40.83-11.69C626.75,576.19,627,575.07,626.06,573.61Z"/><path class="cls-8" d="M414.27,510v19.4s24-27.91,70.2,7.83c-.09,0-4.63-9.27-4.63-9.27l-34.27-18Z"/><path class="cls-8" d="M621,509.72v19.41s-24-27.92-70.2,7.83c.09,0,4.63-9.27,4.63-9.27l34.27-18Z"/></g><g id="Layer_1" data-name="Layer 1"><path class="cls-14" d="M465.25,662.65c8.56,4.91,62.17,16.92,113,0,.65.21-10.66,20-20.89,32.27-12.94,15.53-50.36,16.2-65.49,0-14.81-15.85-15.13-16.19-27.22-31.55C464.41,663.05,464.82,662.4,465.25,662.65Z"/><path class="cls-15" d="M466.54,663s53.41,19.32,110.77,0c.74.27-5,10.49-5,10.49l-19.43,5-21.55,2.19-25.53-.72-22.25-3.44L473,673.59,465.42,664"/><path class="cls-16" d="M411.1,573.15s37.7-37.74,75.08,4.82"/><path class="cls-16" d="M517.33,722.86s8-8.52,15.59-2.43"/><path class="cls-17" d="M497.12,697.88s29.78-18.22,55.71,1C552.68,699,522.93,718.07,497.12,697.88Z"/><path class="cls-18" d="M444.26,558a16,16,0,0,0-6.95,13.09c0,9,7.7,16.33,17.19,16.33s17.19-7.31,17.19-16.33a15.47,15.47,0,0,0-.92-5.23C461.41,559.19,452.36,557.31,444.26,558Z"/><path class="cls-16" d="M624.93,573.15s-37.71-37.74-75.09,4.82"/><path class="cls-18" d="M591.77,558a16,16,0,0,1,6.94,13.09c0,9-7.69,16.33-17.18,16.33s-17.19-7.31-17.19-16.33a15.71,15.71,0,0,1,.91-5.23C574.62,559.19,583.67,557.31,591.77,558Z"/><path class="cls-16" d="M549.84,572.62s9.36-18.07,21.55-21.48"/><path class="cls-18" d="M553,531.54s41.44-33.64,68.75-6.34c0,0-2.1-16.09-8-18S574.12,496.43,553,531.54Z"/><path class="cls-16" d="M486.18,572.88s-9.36-18.07-21.55-21.48"/><path class="cls-7" d="M421.4,589.12c1.53-.67,14.69-7.56,41.81.61"/><path class="cls-7" d="M616.79,588.29c-1.53-.66-14.69-7.56-41.81.61"/><path class="cls-18" d="M483,531.8s-41.45-33.64-68.75-6.34c0,0,2.09-16.09,7.94-18S461.91,496.69,483,531.8Z"/><path class="cls-16" d="M507,581.67s4.88,31-1.95,42.24,3.64,20.48,3.64,20.48"/><path class="cls-16" d="M518,644.37s3.57-5.26,9.93-1.64"/><path class="cls-16" d="M645.66,569.22s9.84-14.72,22.12-9.8,7,25.1,7,25.1S664.36,631,629.23,639.78"/><path class="cls-16" d="M406,647.19c-35.13-8.78-45.57-55.27-45.57-55.27s-5.27-20.18,7-25.09,22.13,9.79,22.13,9.79"/><path class="cls-16" d="M574.58,589s20-5.57,38.61-3.52"/><path class="cls-16" d="M424.52,586.74c18.5-3.13,38.69,2.28,38.69,2.28"/><path class="cls-16" d="M379.89,539s20.9,92.15,43.3,134.57S510,740.8,526.05,740.8s72.26-24.17,91.28-66.59,33-135.26,33-135.26c-1.5-35.84-28.48-46.81-28.58-47.54-33,1.46-40.23-47.54-40.23-47.54s-.63,19.75-31.69,26.33-34.73-38.76-34.73-38.76-7,21.94-25.07,20.48-18.6-13.41-24.08-20.48c-1.51,5.49,8.64,60-54.86,53.39C412,485.56,380.72,500.19,379.89,539Z"/><path class="cls-16" d="M457.83,711.07s10.67,70.32-6.9,95.86"/><path class="cls-16" d="M610,804.33c-29.26-4.87-22.66-92.85-22.66-92.85"/><path class="cls-16" d="M449.64,805.11S273.92,826,231.76,913.72c-38.08,79.23-54.63,209.83-54.63,209.83"/><path class="cls-16" d="M612,801.11S788.67,831.6,840.86,913.72c20.72,32.61,40.23,157.57,40.23,157.57"/><path class="cls-16" d="M448.64,804.87S526,914.23,613.15,801.11"/><path class="cls-16" d="M445.31,701.41c-73.05,1.36-123.94-45.35-148.16-73.9a26.51,26.51,0,0,1,2.14-36.61,301.25,301.25,0,0,0,63.63-85.29c34-67.75,68.67-95.63,136.3-103.9S616.64,427.36,641,472.2c19.71,36.3,45.67,82.93,80.17,98.16a26.61,26.61,0,0,1,13.18,36.22c-18.2,36.63-58,92.19-131.19,90.47"/><path class="cls-16" d="M514,317.48c-19,12.4-85.44-30-108-18.82C382.27,310.36,352.42,458,352.42,458"/><path class="cls-16" d="M657.86,445.46c5.85-29.41-43.88-165.82-62.79-155.58s-109.09,26.2-114.42,25"/><path class="cls-16" d="M291.06,606c7-15.61,11-40.16,20.43-64.57,23.64-61.48,43.81-88.56,56.75-103.95,34.41-40.92,101.82-80.46,174.9-67.29,54.25,9.78,89.16,44.54,103.75,61.27,36.56,50.06,51.34,111,84.09,145.91"/><path class="cls-16" d="M355,520.43s-16.76,27.26,8.5,49"/><path class="cls-16" d="M677.48,531.8c5,21.53-5.65,30.34-5.65,30.34"/><path class="cls-16" d="M794.12,1404.5s48.16,167.9,12.55,175.45-29.14,31.27-142.91,18.87c-66.53-7.25-343.7,20.65-369.24,8.09-26.31-12.94-12.52-21,0-46.91s0-187.5,0-187.5"/><path class="cls-16" d="M777,1501.22c15.66-24.8,19.93-167,19.93-167"/><path class="cls-16" d="M352.42,1368.13S442,1615.74,549.94,1516.42"/><path class="cls-16" d="M290.47,1567.79c19.79-34.45,22.26-54.71,22.26-54.71"/><path class="cls-16" d="M348.14,1609.77s14.65,103.94-68.61,91.33"/><path class="cls-16" d="M761,1599.35s-4.69,73.13,63.25,85"/><line class="cls-16" x1="549.94" y1="1700.97" x2="549.94" y2="1601.35"/><path class="cls-16" d="M549.66,1678.32c-26.21,10.78-29.87-77-29.87-77"/><path class="cls-16" d="M528.91,1928.28s10.88-138,20-139.12S571,1924,571,1924"/><path class="cls-16" d="M294.06,1606.27l-38.67,247.34s-12.23.77-12.76,5.91,7.09,15.75,7.09,15.75-11.34,10.64-11.34,18.61,14.24,24.7,14.24,24.7H851s16.67-17.54,12-29-16.3-25.78-16.3-25.78L811.63,1576"/><path class="cls-16" d="M631.55,805.11s-5.08,34.2-44.81,51.81"/><path class="cls-16" d="M422.16,814.79s34.39,62.05,96.09,57.45"/><path class="cls-16" d="M538.46,871.88s23.83,0,33-6.81"/><line class="cls-16" x1="315.45" y1="1357.6" x2="273.99" y2="1382.03"/><path class="cls-16" d="M238.38,902.08s73.25,79.54,77.07,113.19,0,59.44,0,59.44"/><path class="cls-16" d="M819.79,888.72s-57.6,42.89-66.43,79.78l-8.83,36.89"/><path class="cls-16" d="M661.4,583.56s-.79-11.38-11.06,0c-.18,0,18.55,12.6-4.26,24.85"/><path class="cls-16" d="M375,591.77s.79-11.38,11.06,0c.18,0-18.55,12.6,4.26,24.85"/><path class="cls-19" d="M492.46,646.82s-3.74,3.91-3.23,8"/><path class="cls-19" d="M544.38,646.55s8.54,3.6,8.45,11.29"/><path class="cls-19" d="M540,649.36s4.21,5.73,3.06,10.4"/><line class="cls-19" x1="502.16" y1="650.82" x2="500.12" y2="656.86"/><line class="cls-19" x1="506.77" y1="651.84" x2="506.77" y2="657.88"/><path class="cls-19" d="M525,650.59a6.88,6.88,0,0,1,2.15,7.57"/><path class="cls-19" d="M521,651.47s2.81,3.28-.8,8"/><ellipse class="cls-13" cx="436.43" cy="571.07" rx="4.98" ry="1.81"/><ellipse class="cls-13" cx="564.34" cy="572.88" rx="4.98" ry="1.81"/><path class="cls-20" d="M688.72,1345.8s-55,73.91-136.28,73.77-130.88-47.8-130.88-47.8"/><path class="cls-21" d="M705.05,1004.66s-142-82.39-306.41,15.93c-6.23,3.92-8.77,3.47-4.3,6.28,6.13,1.73,42.91,13.34,42.91,13.34"/><path class="cls-21" d="M400.89,1062.15s-17-13.93-91.91,14.48c-24.85,12.76-38.71,21.48-38.71,21.48s44,4,55.55,0"/><path class="cls-22" d="M221.47,1159.11s92.53-63.5,131.82-82.19,97.23-44,135.51-53.18,83.54-20.68,124.1-20.68,88.58,1.83,135.56,11.48,117.74,40.31,175.81,82.17,60.89,41.93,51.82,54.76S862.68,1293,795.27,1311.68c0,0-116.55,64.55-139.64,63.08-24,5.67-67.3,14.8-103.76,14S452,1384.43,430.08,1376s-118.29-25.43-135.61-43c-25.5-9.49-65-25.65-65-25.65l-55,18.88s-57.55,26.1-68.62,26.93c-1.16-.44,3.8-4.73,3.8-4.73s16.65-18.24,18.8-64.76,1.57-79,1.57-79-2.78-17.73-5.29-30.1S110,1095.15,110,1095.15s-6.34-43.13-5.32-52.92,3-26.67,8.93-33.34,10.69-13.35,16.74-2.6c3.38,15.37,7.21,32.84,7.21,32.84s18.8,66.29,56.22,106.87c12.81,15.17,16.39,21.55,19.77,19s7.94-5.91,7.94-5.91"/><path class="cls-23" d="M665.16,1067.72s-19.91,27.07,0,58.21"/><path class="cls-23" d="M634.32,1060.62s-19.92,27.07,0,58.22"/><path class="cls-24" d="M205,1172.71S129.4,1118,118.16,1025c-3.4-26.55,10.58-21.46,10.58-21.46s2.77,3.23,3.7,9.63,7.32,45.66,19.5,65.51,22.4,48,53,80.89c6.59,6.89,8.59,8.89,8.59,8.89Z"/><path class="cls-23" d="M652.39,1109s-19.91,27.07,0,58.22"/><path class="cls-23" d="M652.39,1031.52s-19.91,27.06,0,58.21"/><path class="cls-23" d="M626.6,1226.16s-19.92,27.07,0,58.22"/><path class="cls-23" d="M595.76,1219.06s-19.92,27.07,0,58.22"/><path class="cls-23" d="M613.83,1267.41s-19.91,27.06,0,58.21"/><path class="cls-23" d="M613.83,1190s-19.91,27.06,0,58.21"/><path class="cls-23" d="M387.69,1208.91s-19.91,27.06,0,58.21"/><path class="cls-23" d="M374.93,1250.15s-19.92,27.07,0,58.22"/><path class="cls-23" d="M374.93,1172.71s-19.92,27.06,0,58.21"/><path class="cls-23" d="M513.48,1117.41s-19.91,27.06,0,58.21"/><path class="cls-23" d="M482.64,1110.31s-19.92,27.06,0,58.21"/><path class="cls-23" d="M269.31,1154s-19.91,27.07,0,58.22"/><path class="cls-23" d="M500.71,1158.65s-19.91,27.06,0,58.21"/><path class="cls-23" d="M500.71,1081.2s-19.91,27.07,0,58.21"/><path class="cls-25" d="M727.9,1144.85c-1.33-31.13-4.6-52.86-4.6-52.86A367.08,367.08,0,0,0,727.9,1144.85Z"/><path class="cls-25" d="M728.31,1141.13l.59,9.63q-.52-2.92-1-5.91c.59,13.71.8,29.23.2,45.53-2.49,24.51-30.68,216.16-302.62,145-7.46-3.13-11.23-5.23-11.23-5.23s-32.36,21.16-41.46-22.63a749.75,749.75,0,0,1-79-2.46c5.62-10,12.28-22,12-22.22-48.35,24.68-119.1-23.42-122.63-63.74l-.33.6c.59-2.42,1.32-4.89,2.21-7.44,8.91-25.47-29.31,62-54.63,37.93,0,0-.17,81.24-23.59,101,0,0-4.72,4,7.07,0,0,0,55.81-20.89,70.36-29.42,8.86-5.19,20.52-13.65,28.28-19.48l20.55,4.49a235.11,235.11,0,0,0,49.47,22c66.63,21.44,43.91,19,123.35,40.3,50.77,13.59,148.65,39.89,279.58-5.57s105.72-69.39,105.72-69.39-13.43-15.14-28.33-43.49c22.23,25.14,48.67,55.11,48.28,55,44-13.85,113.29-93.28,113.45-93.44C823.63,1277.17,728.31,1141.13,728.31,1141.13Z"/><path class="cls-16" d="M767.55,1178.64s-22,78.25,43,96"/><path class="cls-24" d="M194.41,1190s206.33-144.74,341-158.44S728.46,1027,728.46,1027s59.11,6.8,59.38-1.15c-.06-.13-71.53-21.75-112.05-21.66s-80.55-4.62-133.77,7.47-97.62,23.35-146.5,46-112.78,52.19-188.86,113.44c-5.77,4.4-12.25,18.85-12.25,18.85"/><path class="cls-26" d="M288.28,1099.35s45.87-35.14,82.22-40.09c-.35,0-60.36,9.27-98.31,37.57.19.72,16.09,2.52,16.09,2.52"/><path class="cls-26" d="M683.05,994.56S540,948.12,408.89,1031.31c.48.32-16.48-6.8-16.48-6.8l45.87-25s44.25-18.72,71.15-22.54,55.52-7.41,74.1-5.24,67.55,7.5,99.52,22.84"/><path class="cls-16" d="M884.06,1253.46s95.49-93.64,95.49-110.54-111.26-80.18-111.26-80.18S599,874.07,211.56,1166.5c0,0-68.36-68.58-79.12-153.29-5.56-28.3-27.78-4.72-27.78,33s25,151.84,25,151.84,8.33,133.3-25,154.63c2.78,4.82,80.71-31.51,80.71-31.51"/><path class="cls-16" d="M710.19,1007.51s-150.05-90.89-317.78,17c-1.53,2.28,40.49,14.28,40.49,14.28"/><path class="cls-16" d="M392.59,1058.22s-56.71-4.33-122.32,39.89c38.13,3.43,46.38-1.36,46.38-1.36"/><path class="cls-16" d="M725.81,1011.33S710.34,1164.09,759,1242.52"/><circle class="cls-27" cx="829.02" cy="1106.41" r="22.61"/><circle class="cls-28" cx="828.84" cy="1105.75" r="13.76"/><path class="cls-16" d="M624.4,1003.06s-44.77-17.12-75-11"/><path class="cls-16" d="M527.08,1014.54s-29.34-7.82-61,0"/><path class="cls-16" d="M202.08,1176.93s-22,31.87-21,60.08,27.08,54.11,27.08,54.11"/><ellipse class="cls-15" cx="817.06" cy="1103.68" rx="5.11" ry="2.73"/><path class="cls-16" d="M419.43,1373.31s132.11,37.65,256.66-4.8"/><path class="cls-16" d="M663.55,1372.73s-105.34,103.74-238,3.17"/><path class="cls-16" d="M709.58,1352.94c17.1-5.8,16.21-5,27.45-11.43"/><line class="cls-16" x1="784.65" y1="1318.44" x2="771.61" y2="1325.1"/><path class="cls-16" d="M356,1355.56s13.26,6.7,27.48,8"/><line class="cls-16" x1="320.43" y1="1345.8" x2="308.46" y2="1341.34"/><path class="cls-16" d="M979.8,1142.26a37.45,37.45,0,0,0-31.1,15"/><path class="cls-29" d="M184,1323.82s-8.27,8.85,2.59,22.71,12.86,23.55,30.39,8.25,45.91-41.34,46.53-50.79-8.95-22.89-29.82-16.42S184,1323.82,184,1323.82"/><path class="cls-29" d="M240.32,1346.53s-17.92,18.34,5.07,35c12.09,6.62,31.57-.13,34.14-2.2s37.05-23,37.05-23-13.35,26.48-9.8,32.12,11.46,15.44,25.17,10.66,18.27-24.71,18.27-24.71l19.42-54.25s13.53-28.84-7.27-35.72-29.06,29.13-29.06,29.13l-12.63,32.42L310,1342.07s13.89-23.28,18.58-27.36,13.65-21.58,10.23-31.18-9-17.48-20.39-16.34S287.63,1289,287.63,1289L265,1313.33s-23.24,26.89-24.72,33.2"/><path class="cls-29" d="M366.33,1359.55s3.82,40.16,12.85,45.66,20.17,2.24,20.17,2.24a21.72,21.72,0,0,0,8.82-8.45c3.78-6.27,12.95-17,13.27-30.87s1.5-28.85-3.61-40.37-17.15-7-17.15-7a20.52,20.52,0,0,0-12.12,14.75c-2.34,11.23-4.87,28.26-4.87,28.26S371.2,1362.84,366.33,1359.55Z"/><path class="cls-29" d="M725.48,1348.07s6.68,39.9-1.92,44.17-16.46,7.49-21,4.75-21.48-17.65-21.48-17.65-8.94-15.1-11.58-30-5.22-17.49-4-24.64,16.06-10.21,16.06-10.21,8.53-1.3,12.86,5.77,16.41,33.44,16.41,33.44l14.77-5"/><path class="cls-29" d="M778.38,1370.42a24.67,24.67,0,0,1-25-6.4c-11.28-11.44-18.84-28-23.61-33.18s-26.75-35.57-27.56-42.19-2.07-10.33,5.12-18.05,18.15-1.69,18.15-1.69a120.49,120.49,0,0,1,24.75,27.95c11,17.34,17.2,23.38,17.2,23.38L789.19,1348s6.66,13.07-10.81,22.46"/><path class="cls-29" d="M735.38,1248.76s-23.27,17.6,16.23,42.92c10,7.25,32.47,26.86,32.47,26.86l-11.3,7.29,41.5,10.66S834.07,1343,848,1331s1.78-30.29-4.62-34.29-28.16-26.08-40.16-29c-11.14-7.48-30.6-19-30.6-19s-25.19-14.63-37.25,0"/><path class="cls-29" d="M895.63,1266.05s2.72,13.16-7.84,32.31c-3.12,2.35-7.17,5.24-19.12,0s-36.53-18.5-36.53-18.5-27.7-12-23.48-25.49,13.85-15.53,13.85-15.53,8-4,33.65,3.82,37.28,17,39.47,23.39"/><path class="cls-30" d="M232.65,1340.69s-35.46,18.59-45.91-20.42c0,0-13,9.41-1.06,24.85s13.39,20.39,24.38,14.09S232.65,1340.69,232.65,1340.69Z"/><ellipse class="cls-31" cx="320.2" cy="1277.97" rx="11.48" ry="7.14"/><ellipse class="cls-31" cx="242.07" cy="1297.24" rx="11.48" ry="7.14"/><ellipse class="cls-31" cx="356.21" cy="1291.85" rx="8.6" ry="5.13"/><ellipse class="cls-31" cx="402.97" cy="1328.58" rx="6.17" ry="5.13"/><ellipse class="cls-31" cx="748.44" cy="1252.22" rx="11.48" ry="7.14" transform="translate(-322.67 261.8) rotate(-16.38)"/><ellipse class="cls-31" cx="828.84" cy="1248.69" rx="11.48" ry="7.14" transform="translate(-318.41 284.32) rotate(-16.38)"/><ellipse class="cls-31" cx="717.8" cy="1275.69" rx="8.6" ry="5.13" transform="translate(-330.53 254.11) rotate(-16.38)"/><ellipse class="cls-31" cx="683.3" cy="1324.11" rx="6.17" ry="5.13" transform="translate(-345.58 246.35) rotate(-16.38)"/><path class="cls-30" d="M320.38,1347.24l-3.8,9-40.1,24.27s-17,6.27-31.09,1-10.85-25.25-10.85-25.25,21.72-36.46,29-41.36c-.07.21,1.29,20.8,10.48,26.08s14.82,3.29,14.82,3.29,9.52,8.28,16.83,4l5.33-5.91,9.41,4.81"/><path class="cls-30" d="M314.7,1360.77s-12.38,22.16-7.22,28.72,8.57,12,20.26,10.86,19-16.39,19-16.39l9.51-30.09s-12.51,9-19.51,4.82-14.26-8.8-15.08-14.39l-6.92,16.47"/><path class="cls-30" d="M382.52,1364.13s-16.62-5.25-16.11-2,3.58,40.65,17.28,45.14,21.08-3,23.57-6.9,8.37-13.57,8.37-13.57,5.48-5.33,5.81-18.65c.37-5.57-16.22,12.16-37.75-5.57"/><path class="cls-30" d="M676.35,1370.89s24.64,9.87,35.35-13.2c-.18-.54-1.34-3.82-1.34-3.82l15.25-5.17s6.82,38.75-2.85,43.93-12,6.59-20.22,4.36c-5.8-2.75-12.36-9.78-12.36-9.78l-9.12-7.87-4.71-8.45"/><path class="cls-30" d="M733.61,1336.38s25.42,9.55,33.8-16.14l22.1,28.46s3.34,12.3-5.62,18-13.84,6.83-21.36,3.18-10-6.14-14.53-12.11-14.39-21.35-14.39-21.35"/><path class="cls-30" d="M814.89,1274s6.75,28.08-16.44,34.1c1.1,3.88-10.93,10.35-11,11.41,0,.76-3.36-1-3.36-1l-10.45,7,31.26,8.17s20.91,8.62,31.39,3.35S851.92,1331,853,1322.5s4.15-13.17-4.68-21.2S814.89,1274,814.89,1274"/><path class="cls-30" d="M859.07,1294.25s33.48-.39,35.35-30.69c.12,0,7.6,8.23-5.56,33.22-.35.57-2.33,10.62-29.79-2.53"/><path class="cls-16" d="M887.44,1256.58s-61.62-35.06-75.57-9.53c-4.77,10.21-3.75,15,0,19.4s49,31.44,63.66,33.93c7.48,1.14,11.57,2.5,15.31-8.05S903.1,1266.11,887.44,1256.58Z"/><path class="cls-16" d="M807.17,1333.79a38.83,38.83,0,0,0,33.79,1.62c5.31-2.31,10-5.89,11.64-11.42,4.54-15.32-2.61-21.11-2.61-21.11s-25.87-25-42.89-33.44-54.47-42.47-73.53-18.65c-15.32,19.15,9.59,36.1,20,42a39.68,39.68,0,0,1,8.06,6.12C769.28,1306.45,787.52,1323.24,807.17,1333.79Z"/><line class="cls-16" x1="773.63" y1="1326.35" x2="821.36" y2="1338.26"/><path class="cls-16" d="M748,1357.73a32,32,0,0,0,14.53,12.11c5.87,2.41,13.14,3.37,19.56-1.65,13.53-10.58,6.54-21.3,6.54-21.3l-32.28-40.53s-24.29-40.39-37.8-39.83-15.95,11.38-15.95,11.38-6.72,8.23,10.87,30.8C726.76,1325.76,741.56,1347.92,748,1357.73Z"/><path class="cls-16" d="M725.48,1348.07a105.67,105.67,0,0,1,1.53,37.11c-1,6.64-4.34,9.19-15.57,12.41s-18.13-8.84-28.34-16.65-16.34-44.78-16.34-44.78-6.38-15.07,9.7-20.43,19.66,8,19.66,8,14.3,24.9,17.87,42.26"/><path class="cls-16" d="M186.74,1320.27s49.83-50.43,70.18-29.62c7.35,8.54,7.65,13.4,5.25,18.68s-38.69,43.52-52.11,49.88c-6.9,3.12-10.46,5.54-16.93-3.61S174.24,1333.68,186.74,1320.27Z"/><path class="cls-16" d="M274,1382s-27,7.22-35.47-6.3-3.2-21-3.2-21,18.14-31.07,32.24-43.8,45.48-60.66,65.75-37.84c14.12,15.9-.11,36.35-7.47,45a72.3,72.3,0,0,0-7.33,10.36C311.37,1340.64,294.08,1367.79,274,1382Z"/><path class="cls-16" d="M348.42,1380a31.93,31.93,0,0,1-10.7,15.6c-5,3.9-11.72,6.8-19.26,3.7-15.87-6.54-12.06-18.76-12.06-18.76l20.07-47.79s12.42-45.48,25.57-48.59,18.42,6.65,18.42,6.65,8.69,6.11-2.11,32.62C360.19,1343.44,352,1368.8,348.42,1380Z"/><path class="cls-16" d="M383.33,1378.71c-1.26-17.69,5.77-45.52,5.77-45.52s3.79-13.65,16.75-13.06c13.68.62,14.87,17,14.87,17s4.1,37.24-3.61,47.53-11.1,23.75-22.78,23.7-15.57-1.62-18.35-7.74-8.88-24-9.65-40"/><path class="cls-16" d="M265.14,1323.82s3.1,24.59,24.51,20.59"/><path class="cls-16" d="M325.35,1350s12.24,16.75,25.73,5.86"/><path class="cls-16" d="M815.17,1281.51s4,24.46-17.66,26.7"/><path class="cls-16" d="M764.86,1323.7s-7,19.53-23,12.91"/><path class="cls-16" d="M465.25,662.32c8.56,4.92,62.17,16.92,113,0,.65.22-10.66,20-20.89,32.27-12.94,15.53-50.36,16.2-65.49,0-14.81-15.84-15.13-16.19-27.22-31.55C464.41,662.72,464.82,662.07,465.25,662.32Z"/><path class="cls-16" d="M474.35,674.12s46.82,14.93,97.21,0"/><path class="cls-16" d="M553.45,698.39c-28-17.74-57.23,0-57.23,0"/><ellipse class="cls-10" cx="441.41" cy="601.67" rx="15.07" ry="6.96"/><ellipse class="cls-10" cx="595.88" cy="601.67" rx="15.07" ry="6.96"/></g></svg>