<svg id="Layer_6" data-name="Layer 6" xmlns="http://www.w3.org/2000/svg" viewBox="0 0 800 704.05"><defs><style>.cls-1{fill:#0d6766;}.cls-2{fill:#0f868b;}</style></defs><path class="cls-1" d="M382,501.75c-5.38,2.76-222.88,51.92-227.89-202.81a8.35,8.35,0,0,0-15.05-4.84c-12.95,17.62-27,50.36-7.91,98.4C157.85,459.72,80.44,374,28.74,402.9c-7.12,4-5.07,14.9,2.9,16.3,22.46,3.94,64,23.44,132.24,95.53a9.08,9.08,0,0,0,.71.68c67.18,57.32,135.73,69.78,221.54-15.74"/><path class="cls-2" d="M126.44,477.29S221.66,578,309.87,522.57,535.78,389.65,631.61,467c-.08,3.11-76.2,139.91-243.42,138.7S133.72,500.87,126.44,477.29Z"/><path class="cls-1" d="M502.34,437.2c-1.21.19-52.38,98.89,48,118.1,4.25-3.06,68-56.61,81.26-88.33C631.61,467,579.63,425,502.34,437.2Z"/><path class="cls-1" d="M413.78,180.75c5.38-2.76,222.88-51.92,227.89,202.81a8.35,8.35,0,0,0,15.05,4.84c12.95-17.62,27-50.36,7.91-98.4-26.66-67.23,50.75,18.51,102.45-10.4,7.12-4,5.07-14.91-2.91-16.3-22.45-3.95-63.94-23.45-132.23-95.53a9.2,9.2,0,0,0-.72-.68C564.05,109.77,495.5,97.3,409.69,182.83"/><path class="cls-2" d="M669.38,205.21s-95.22-100.69-183.44-45.29S260,292.84,164.21,215.53c.08-3.11,76.2-139.91,243.41-138.7S662.1,181.63,669.38,205.21Z"/><path class="cls-1" d="M293.47,245.3c1.22-.2,52.39-98.89-48-118.1-4.24,3.06-68,56.61-81.25,88.33C164.21,215.53,216.18,257.53,293.47,245.3Z"/></svg>