<svg id="Layer_3" data-name="Layer 3" xmlns="http://www.w3.org/2000/svg" viewBox="0 0 800 704.05"><defs><style>.cls-1{fill:none;stroke:#008389;stroke-miterlimit:10;stroke-width:16px;}.cls-2{fill:#008389;}</style></defs><path class="cls-1" d="M232.36,456.34s96.5-314.75,492.48-333a9.21,9.21,0,0,1,9.65,8.84c.18,7.36-.11,17.56-.42,25.45a9.07,9.07,0,0,0,11.2,9.18l20.7-4.93a9.07,9.07,0,0,1,10.59,12.16c-31,77.48-168.92,440.77-672.4,252-122.85-48.89-90.22,330.27,162.77,72.59.23-.25.52-.46.76-.69l24.73-23.08"/><path class="cls-2" d="M564.2,148.71A189.09,189.09,0,0,0,566.84,195a202.93,202.93,0,0,0,13.34,44,201.25,201.25,0,0,0,21.71,38.61,204.18,204.18,0,0,0,30.8,34.33,190,190,0,0,0,37.9,26.2q2.42,1.26,4.87,2.44a8.58,8.58,0,0,0,6.16.8,8.12,8.12,0,0,0,4.78-3.67,8,8,0,0,0,.81-6.17,7.91,7.91,0,0,0-3.68-4.78A177.78,177.78,0,0,1,658.36,312Q655,309.57,651.7,307l1.62,1.25A191.37,191.37,0,0,1,625.57,282q-3.57-4.11-6.89-8.42l1.25,1.62a201.72,201.72,0,0,1-21.4-34.38q-2.52-5.13-4.74-10.41l.8,1.92a195.75,195.75,0,0,1-11.65-38q-1.08-5.53-1.84-11.11l.29,2.12a180.32,180.32,0,0,1-1.58-28.44q.11-4.1.39-8.16a8,8,0,0,0-13.65-5.66,8.85,8.85,0,0,0-2.35,5.66Z"/><path class="cls-2" d="M639.45,204.94l-1.17,1.17a11.87,11.87,0,0,0-3.3,5.14,14.46,14.46,0,0,0,0,12.33,11.9,11.9,0,0,0,3.3,5.15l3.24,2.5a15.94,15.94,0,0,0,8.08,2.19l4.25-.57a15.89,15.89,0,0,0,7.06-4.12l1.17-1.16a17.73,17.73,0,0,0,4.68-11.32,17.73,17.73,0,0,0-4.68-11.31l-3.24-2.5a15.94,15.94,0,0,0-8.08-2.19l-4.25.58a16,16,0,0,0-7.06,4.11Z"/><path class="cls-2" d="M459.87,227a49.23,49.23,0,0,0,2.67,12.7,53.65,53.65,0,0,0,5.72,11.5,55.3,55.3,0,0,0,8.29,9.83,51.05,51.05,0,0,0,10.18,7.4,43.26,43.26,0,0,0,12.92,4.68,9,9,0,0,0,6.17-.81,8,8,0,0,0,2.87-10.95,7.84,7.84,0,0,0-4.79-3.67,35.57,35.57,0,0,1-7.67-2.27l1.91.81a41,41,0,0,1-9-5.31l1.62,1.25a46,46,0,0,1-8.17-8.21l1.25,1.62a46.74,46.74,0,0,1-5.91-10.08l.81,1.91a42,42,0,0,1-2.95-10.71l.28,2.13c-.08-.61-.14-1.21-.2-1.82a5.94,5.94,0,0,0-.69-3.08,6,6,0,0,0-1.65-2.58,8.15,8.15,0,0,0-5.66-2.34,8.05,8.05,0,0,0-5.65,2.34,7.85,7.85,0,0,0-2.35,5.66Z"/><path class="cls-2" d="M534.36,329.64A48.71,48.71,0,0,0,538.3,342a52.45,52.45,0,0,0,6.82,10.8,45.3,45.3,0,0,0,7.7,7.71,48.29,48.29,0,0,0,17.88,9.26,45.92,45.92,0,0,0,7.73,1.23,6.06,6.06,0,0,0,3.08-.69,5.93,5.93,0,0,0,2.57-1.65,8,8,0,0,0,0-11.32L582.46,356a7.91,7.91,0,0,0-4-1.09q-.87-.07-1.71-.18l2.12.28a35.55,35.55,0,0,1-9-2.48l1.91.81a41.73,41.73,0,0,1-9.11-5.37l1.62,1.25a45.89,45.89,0,0,1-8-8l1.25,1.62a45.24,45.24,0,0,1-5.8-9.89l.81,1.91a41.15,41.15,0,0,1-2.73-9.48,8.91,8.91,0,0,0-3.68-4.78,8.13,8.13,0,0,0-6.16-.8,8.05,8.05,0,0,0-4.78,3.67l-.81,1.91a8.1,8.1,0,0,0,0,4.26Z"/><path class="cls-2" d="M524.06,254.83a51.17,51.17,0,0,0,6.76,24.61,52.79,52.79,0,0,0,7.54,10.11,48.16,48.16,0,0,0,9.64,7.78,46.35,46.35,0,0,0,7,3.39,32.46,32.46,0,0,0,5.55,1.73,8.49,8.49,0,0,0,6.17-.81,8,8,0,0,0,2.87-10.94,8,8,0,0,0-4.78-3.68,32.67,32.67,0,0,1-5.88-1.86l1.91.81a37.22,37.22,0,0,1-8.05-4.73l1.62,1.25a42.39,42.39,0,0,1-7.61-7.65l1.25,1.62a44.68,44.68,0,0,1-5.72-9.82l.8,1.91a43,43,0,0,1-3-10.89l.28,2.12a43,43,0,0,1-.35-4.95,8.24,8.24,0,0,0-2.34-5.66,8,8,0,0,0-11.31,0,8.27,8.27,0,0,0-2.35,5.66Z"/><path class="cls-2" d="M407.78,268.38a51.37,51.37,0,0,0,7.71,24.43,55.08,55.08,0,0,0,8,10.06,57.81,57.81,0,0,0,5.55,4.69,42.81,42.81,0,0,0,4.42,3,51.92,51.92,0,0,0,7.12,3.35,34.87,34.87,0,0,0,5.67,1.69,8.47,8.47,0,0,0,6.16-.81,8,8,0,0,0,2.87-10.94,8,8,0,0,0-4.78-3.68,35.68,35.68,0,0,1-6.47-2l1.91.8a40,40,0,0,1-8.83-5.2l1.62,1.25a46,46,0,0,1-8-8.05l1.26,1.62a46.79,46.79,0,0,1-6-10.24l.81,1.91a42.84,42.84,0,0,1-3-10.89l.29,2.13c-.13-1-.23-2.06-.28-3.09a8.48,8.48,0,0,0-2.35-5.66,8,8,0,0,0-11.31,0,8,8,0,0,0-2.34,5.66Z"/><path class="cls-2" d="M472.73,361.84a49.19,49.19,0,0,0,2.94,12.66,52.66,52.66,0,0,0,6,11.41,53.44,53.44,0,0,0,8.48,9.54,49,49,0,0,0,10.36,7.06,51,51,0,0,0,7.16,2.89,46.34,46.34,0,0,0,7.75,1.5,6.1,6.1,0,0,0,3.09-.69,5.93,5.93,0,0,0,2.57-1.65,8,8,0,0,0,0-11.32L519.46,392a8,8,0,0,0-4-1.09l-.34,0,2.13.28a34.58,34.58,0,0,1-8.63-2.39l1.91.81a40.64,40.64,0,0,1-8.92-5.26l1.62,1.25a45.54,45.54,0,0,1-8-8l1.25,1.62a46,46,0,0,1-5.79-9.89l.81,1.91a42,42,0,0,1-2.92-10.55l.28,2.13c0-.3-.08-.61-.11-.91a6,6,0,0,0-.69-3.08,6,6,0,0,0-1.65-2.58,8,8,0,0,0-11.32,0c-1.34,1.46-2.57,3.6-2.34,5.66Z"/><path class="cls-2" d="M470.15,292.89a51.11,51.11,0,0,0,6.76,24.61,52.55,52.55,0,0,0,7.54,10.12,44.51,44.51,0,0,0,16.62,11.17,32.46,32.46,0,0,0,5.55,1.73,8.5,8.5,0,0,0,6.17-.81,8,8,0,0,0-1.91-14.62,33.48,33.48,0,0,1-5.88-1.86l1.91.81a37.63,37.63,0,0,1-8.05-4.73l1.62,1.25a42.45,42.45,0,0,1-7.62-7.65l1.25,1.62a45.49,45.49,0,0,1-5.72-9.82l.81,1.91a43,43,0,0,1-3-10.9l.28,2.13a43.36,43.36,0,0,1-.35-5,8.28,8.28,0,0,0-2.34-5.65,8,8,0,0,0-11.31,0,8.23,8.23,0,0,0-2.35,5.65Z"/><path class="cls-2" d="M338.7,311.12a49,49,0,0,0,1,12.9,53.81,53.81,0,0,0,4.18,12.2,54.65,54.65,0,0,0,6.92,10.8A49.91,49.91,0,0,0,360,355.7,42.51,42.51,0,0,0,372.1,362a6.08,6.08,0,0,0,3.19.14,5.93,5.93,0,0,0,3-1,8,8,0,0,0,2.87-10.94l-1.25-1.62a8,8,0,0,0-3.53-2.06c-.77-.26-1.52-.55-2.27-.86l1.91.81a37.31,37.31,0,0,1-8.26-4.87l1.62,1.25a43.62,43.62,0,0,1-7.65-7.71l1.25,1.61A47.14,47.14,0,0,1,357,326.64l.81,1.92a45.21,45.21,0,0,1-3.15-11.4l.29,2.13a40.6,40.6,0,0,1-.27-8.17A8,8,0,0,0,341,305.46l-1.25,1.62a8,8,0,0,0-1.09,4Z"/><path class="cls-2" d="M408.54,404.62a52,52,0,0,0,25.08,42.25,50.43,50.43,0,0,0,7.05,3.33,34.39,34.39,0,0,0,5.61,1.66,8.52,8.52,0,0,0,6.16-.81,8.13,8.13,0,0,0,3.68-4.78,8,8,0,0,0-.81-6.16,8,8,0,0,0-4.78-3.68,33.91,33.91,0,0,1-6.4-2l1.91.81a38.74,38.74,0,0,1-8.42-5l1.62,1.25a44.58,44.58,0,0,1-7.82-7.83l1.25,1.61a46.27,46.27,0,0,1-5.94-10.18l.81,1.91a42.85,42.85,0,0,1-3-10.72l.28,2.13q-.25-1.9-.33-3.84A8.33,8.33,0,0,0,422.2,399a8,8,0,0,0-13.66,5.65Z"/><path class="cls-2" d="M395.88,338.6a51,51,0,0,0,6.76,24.61,52.48,52.48,0,0,0,7.54,10.11,47.58,47.58,0,0,0,9.64,7.79,48.74,48.74,0,0,0,7,3.39,32.81,32.81,0,0,0,5.56,1.72,8.5,8.5,0,0,0,6.17-.8,8,8,0,0,0-1.91-14.62,33.48,33.48,0,0,1-5.88-1.86l1.91.8a36.94,36.94,0,0,1-8.05-4.72l1.62,1.25a42.77,42.77,0,0,1-7.62-7.65l1.25,1.62a45.32,45.32,0,0,1-5.72-9.83l.81,1.92a43.42,43.42,0,0,1-3-10.9l.29,2.13a41.2,41.2,0,0,1-.35-5,8.33,8.33,0,0,0-2.34-5.66,8,8,0,0,0-11.32,0,8.31,8.31,0,0,0-2.34,5.66Z"/></svg>