<svg id="Layer_2" data-name="Layer 2" xmlns="http://www.w3.org/2000/svg" viewBox="0 0 800 704.05"><defs><style>.cls-1{fill:none;stroke:#008389;stroke-miterlimit:10;stroke-width:16px;}.cls-2{fill:#008389;}</style></defs><rect class="cls-1" x="142.18" y="37.84" width="515.64" height="628.38" rx="62.17"/><path class="cls-2" d="M227.57,221.66H572.43a6,6,0,0,0,0-12H227.57a6,6,0,0,0,0,12Z"/><path class="cls-2" d="M227.57,312.75H572.43a6,6,0,0,0,0-12H227.57a6,6,0,1,0,0,12Z"/><path class="cls-2" d="M227.57,398.42H572.43a6,6,0,0,0,0-12H227.57a6,6,0,0,0,0,12Z"/><path class="cls-2" d="M227.57,494.4H572.43a6,6,0,0,0,0-12H227.57a6,6,0,0,0,0,12Z"/></svg>